<?xml version="1.0" encoding="UTF-8" standalone="no"?>
<!DOCTYPE svg PUBLIC "-//W3C//DTD SVG 1.1//EN"
 "http://www.w3.org/Graphics/SVG/1.1/DTD/svg11.dtd">
<!-- Generated by graphviz version 2.34.0 (20130907.0228)
 -->
<!-- Title: %3 Pages: 1 -->
<svg width="1589pt" height="786pt"
 viewBox="0.00 0.00 1589.21 786.00" xmlns="http://www.w3.org/2000/svg" xmlns:xlink="http://www.w3.org/1999/xlink">
<g id="graph0" class="graph" transform="scale(1 1) rotate(0) translate(4 782)">
<title>%3</title>
<polygon fill="white" stroke="white" points="-4,4 -4,-782 1585.21,-782 1585.21,4 -4,4"/>
<!-- org_liveSense_misc_queryBuilder_gwt -->
<g id="node1" class="node"><title>org_liveSense_misc_queryBuilder_gwt</title>
<polygon fill="yellow" stroke="black" points="569.712,-741 569.712,-777 798.712,-777 798.712,-741 569.712,-741"/>
<text text-anchor="middle" x="684.212" y="-766.1" font-family="Arial" font-size="8.00">liveSense :: Misc :: SQL QueryBuilder GWT specific classes</text>
<polyline fill="none" stroke="black" points="569.712,-759 798.712,-759 "/>
<text text-anchor="middle" x="684.212" y="-748.1" font-family="Arial" font-size="8.00">org.liveSense.misc.queryBuilder.gwt(2&#45;SNAPSHOT)</text>
</g>
<!-- org_liveSense_framework_gwt -->
<g id="node2" class="node"><title>org_liveSense_framework_gwt</title>
<polygon fill="green" stroke="black" points="266.212,-667 266.212,-703 442.212,-703 442.212,-667 266.212,-667"/>
<text text-anchor="middle" x="354.212" y="-692.1" font-family="Arial" font-size="8.00">liveSense :: Framework :: GWT framework</text>
<polyline fill="none" stroke="black" points="266.212,-685 442.212,-685 "/>
<text text-anchor="middle" x="354.212" y="-674.1" font-family="Arial" font-size="8.00">org.liveSense.framework.gwt(2&#45;SNAPSHOT)</text>
</g>
<!-- org_liveSense_misc_queryBuilder_gwt&#45;&gt;org_liveSense_framework_gwt -->
<g id="edge1" class="edge"><title>org_liveSense_misc_queryBuilder_gwt&#45;&gt;org_liveSense_framework_gwt</title>
<path fill="none" stroke="yellow" d="M606.007,-740.937C556.779,-730.196 493.142,-716.312 442.161,-705.189"/>
<polygon fill="yellow" stroke="yellow" points="442.658,-701.715 432.142,-703.003 441.166,-708.554 442.658,-701.715"/>
</g>
<!-- org_liveSense_misc_queryBuilder -->
<g id="node3" class="node"><title>org_liveSense_misc_queryBuilder</title>
<polygon fill="green" stroke="black" points="857.712,-667 857.712,-703 1044.71,-703 1044.71,-667 857.712,-667"/>
<text text-anchor="middle" x="951.212" y="-692.1" font-family="Arial" font-size="8.00">liveSense :: Misc :: SQL QueryBuilder</text>
<polyline fill="none" stroke="black" points="857.712,-685 1044.71,-685 "/>
<text text-anchor="middle" x="951.212" y="-674.1" font-family="Arial" font-size="8.00">org.liveSense.misc.queryBuilder(2&#45;SNAPSHOT)</text>
</g>
<!-- org_liveSense_misc_queryBuilder_gwt&#45;&gt;org_liveSense_misc_queryBuilder -->
<g id="edge2" class="edge"><title>org_liveSense_misc_queryBuilder_gwt&#45;&gt;org_liveSense_misc_queryBuilder</title>
<path fill="none" stroke="yellow" d="M747.487,-740.937C786.665,-730.372 837.122,-716.766 878.019,-705.737"/>
<polygon fill="yellow" stroke="yellow" points="879.185,-709.048 887.929,-703.065 877.362,-702.29 879.185,-709.048"/>
</g>
<!-- org_apache_geronimo_specs_geronimo_servlet_3_0_spec -->
<g id="node4" class="node"><title>org_apache_geronimo_specs_geronimo_servlet_3_0_spec</title>
<polygon fill="#3182bd" stroke="black" points="403.212,-445 403.212,-481 633.212,-481 633.212,-445 403.212,-445"/>
<text text-anchor="middle" x="518.212" y="-470.1" font-family="Arial" font-size="8.00">Servlet 3.0</text>
<polyline fill="none" stroke="black" points="403.212,-463 633.212,-463 "/>
<text text-anchor="middle" x="518.212" y="-452.1" font-family="Arial" font-size="8.00">org.apache.geronimo.specs.geronimo&#45;servlet_3.0_spec(1.0)</text>
</g>
<!-- org_liveSense_framework_gwt&#45;&gt;org_apache_geronimo_specs_geronimo_servlet_3_0_spec -->
<g id="edge3" class="edge"><title>org_liveSense_framework_gwt&#45;&gt;org_apache_geronimo_specs_geronimo_servlet_3_0_spec</title>
<path fill="none" stroke="green" d="M371.381,-666.72C380.62,-656.673 391.64,-643.383 399.212,-630 425.169,-584.125 406.059,-559.767 438.212,-518 447.763,-505.593 460.999,-495.049 473.959,-486.661"/>
<polygon fill="green" stroke="green" points="476.152,-489.422 482.837,-481.202 472.485,-483.459 476.152,-489.422"/>
</g>
<!-- org_apache_servicemix_bundles_junit -->
<g id="node5" class="node"><title>org_apache_servicemix_bundles_junit</title>
<polygon fill="#3182bd" stroke="black" points="328.712,-223 328.712,-259 501.712,-259 501.712,-223 328.712,-223"/>
<text text-anchor="middle" x="415.212" y="-248.1" font-family="Arial" font-size="8.00">Apache ServiceMix :: Bundles :: junit</text>
<polyline fill="none" stroke="black" points="328.712,-241 501.712,-241 "/>
<text text-anchor="middle" x="415.212" y="-230.1" font-family="Arial" font-size="8.00">org.apache.servicemix.bundles.junit(3.8.2.4)</text>
</g>
<!-- org_liveSense_framework_gwt&#45;&gt;org_apache_servicemix_bundles_junit -->
<g id="edge4" class="edge"><title>org_liveSense_framework_gwt&#45;&gt;org_apache_servicemix_bundles_junit</title>
<path fill="none" stroke="green" d="M271.684,-666.991C167.643,-643.127 2.21206,-596.055 2.21206,-538 2.21206,-538 2.21206,-538 2.21206,-462 2.21206,-420.248 -6.63618,-401.108 21.2121,-370 96.696,-285.681 228.24,-256.658 318.411,-246.81"/>
<polygon fill="green" stroke="green" points="318.785,-250.291 328.372,-245.782 318.066,-243.328 318.785,-250.291"/>
</g>
<!-- org_apache_servicemix_specs_jsr303_api_1_0_0 -->
<g id="node6" class="node"><title>org_apache_servicemix_specs_jsr303_api_1_0_0</title>
<polygon fill="#3182bd" stroke="black" points="189.712,-593 189.712,-629 390.712,-629 390.712,-593 189.712,-593"/>
<text text-anchor="middle" x="290.212" y="-618.1" font-family="Arial" font-size="8.00">Apache ServiceMix :: Specs :: JSR&#45;303 API 1.0.0</text>
<polyline fill="none" stroke="black" points="189.712,-611 390.712,-611 "/>
<text text-anchor="middle" x="290.212" y="-600.1" font-family="Arial" font-size="8.00">org.apache.servicemix.specs.jsr303&#45;api&#45;1.0.0(2.2.0)</text>
</g>
<!-- org_liveSense_framework_gwt&#45;&gt;org_apache_servicemix_specs_jsr303_api_1_0_0 -->
<g id="edge5" class="edge"><title>org_liveSense_framework_gwt&#45;&gt;org_apache_servicemix_specs_jsr303_api_1_0_0</title>
<path fill="none" stroke="green" d="M339.045,-666.937C331.112,-658.012 321.248,-646.916 312.467,-637.037"/>
<polygon fill="green" stroke="green" points="314.974,-634.59 305.715,-629.441 309.743,-639.24 314.974,-634.59"/>
</g>
<!-- org_liveSense_core -->
<g id="node7" class="node"><title>org_liveSense_core</title>
<polygon fill="#3182bd" stroke="black" points="832.712,-593 832.712,-629 971.712,-629 971.712,-593 832.712,-593"/>
<text text-anchor="middle" x="902.212" y="-618.1" font-family="Arial" font-size="8.00">liveSense :: Core</text>
<polyline fill="none" stroke="black" points="832.712,-611 971.712,-611 "/>
<text text-anchor="middle" x="902.212" y="-600.1" font-family="Arial" font-size="8.00">org.liveSense.core(2&#45;SNAPSHOT)</text>
</g>
<!-- org_liveSense_misc_queryBuilder&#45;&gt;org_liveSense_core -->
<g id="edge6" class="edge"><title>org_liveSense_misc_queryBuilder&#45;&gt;org_liveSense_core</title>
<path fill="none" stroke="green" d="M939.6,-666.937C933.706,-658.277 926.422,-647.573 919.853,-637.921"/>
<polygon fill="green" stroke="green" points="922.601,-635.739 914.081,-629.441 916.814,-639.677 922.601,-635.739"/>
</g>
<!-- org_apache_commons_beanutils -->
<g id="node8" class="node"><title>org_apache_commons_beanutils</title>
<polygon fill="#3182bd" stroke="black" points="1387.71,-519 1387.71,-555 1538.71,-555 1538.71,-519 1387.71,-519"/>
<text text-anchor="middle" x="1463.21" y="-544.1" font-family="Arial" font-size="8.00">Commons BeanUtils</text>
<polyline fill="none" stroke="black" points="1387.71,-537 1538.71,-537 "/>
<text text-anchor="middle" x="1463.21" y="-526.1" font-family="Arial" font-size="8.00">org.apache.commons.beanutils(1.8.3)</text>
</g>
<!-- org_liveSense_misc_queryBuilder&#45;&gt;org_apache_commons_beanutils -->
<g id="edge7" class="edge"><title>org_liveSense_misc_queryBuilder&#45;&gt;org_apache_commons_beanutils</title>
<path fill="none" stroke="green" d="M961.526,-666.829C976.372,-642.737 1003.68,-600.848 1019.21,-592 1087.92,-552.86 1295.02,-567.767 1373.21,-556 1374.69,-555.778 1376.18,-555.548 1377.68,-555.31"/>
<polygon fill="green" stroke="green" points="1378.39,-558.74 1387.68,-553.653 1377.24,-551.835 1378.39,-558.74"/>
</g>
<!-- org_apache_servicemix_specs_java_persistence_api_1_1_1 -->
<g id="node9" class="node"><title>org_apache_servicemix_specs_java_persistence_api_1_1_1</title>
<polygon fill="#3182bd" stroke="black" points="1028.71,-593 1028.71,-629 1265.71,-629 1265.71,-593 1028.71,-593"/>
<text text-anchor="middle" x="1147.21" y="-618.1" font-family="Arial" font-size="8.00">Apache ServiceMix :: Specs :: Java Persistence API 1.4</text>
<polyline fill="none" stroke="black" points="1028.71,-611 1265.71,-611 "/>
<text text-anchor="middle" x="1147.21" y="-600.1" font-family="Arial" font-size="8.00">org.apache.servicemix.specs.java&#45;persistence&#45;api&#45;1.1.1(2.2.0)</text>
</g>
<!-- org_liveSense_misc_queryBuilder&#45;&gt;org_apache_servicemix_specs_java_persistence_api_1_1_1 -->
<g id="edge8" class="edge"><title>org_liveSense_misc_queryBuilder&#45;&gt;org_apache_servicemix_specs_java_persistence_api_1_1_1</title>
<path fill="none" stroke="green" d="M997.661,-666.937C1025.63,-656.663 1061.43,-643.511 1090.99,-632.652"/>
<polygon fill="green" stroke="green" points="1092.58,-635.799 1100.76,-629.065 1090.16,-629.228 1092.58,-635.799"/>
</g>
<!-- org_liveSense_core&#45;&gt;org_apache_geronimo_specs_geronimo_servlet_3_0_spec -->
<g id="edge12" class="edge"><title>org_liveSense_core&#45;&gt;org_apache_geronimo_specs_geronimo_servlet_3_0_spec</title>
<path fill="none" stroke="#3182bd" d="M832.686,-607.648C773.697,-603.143 688.359,-590.56 622.212,-556 600.762,-544.793 601.2,-534.19 583.212,-518 571.805,-507.733 558.866,-496.84 547.553,-487.547"/>
<polygon fill="#3182bd" stroke="#3182bd" points="549.608,-484.707 539.648,-481.095 545.182,-490.13 549.608,-484.707"/>
</g>
<!-- org_liveSense_core&#45;&gt;org_apache_commons_beanutils -->
<g id="edge14" class="edge"><title>org_liveSense_core&#45;&gt;org_apache_commons_beanutils</title>
<path fill="none" stroke="#3182bd" d="M971.767,-594.432C976.644,-593.545 981.494,-592.722 986.212,-592 1156.96,-565.857 1202.28,-580.973 1373.21,-556 1374.69,-555.784 1376.18,-555.56 1377.68,-555.328"/>
<polygon fill="#3182bd" stroke="#3182bd" points="1378.38,-558.76 1387.69,-553.701 1377.26,-551.851 1378.38,-558.76"/>
</g>
<!-- javax_jcr -->
<g id="node10" class="node"><title>javax_jcr</title>
<polygon fill="#9ecae1" stroke="black" points="270.212,-371 270.212,-407 456.212,-407 456.212,-371 270.212,-371"/>
<text text-anchor="middle" x="363.212" y="-396.1" font-family="Arial" font-size="8.00">Content Repository for JavaTM Technology API</text>
<polyline fill="none" stroke="black" points="270.212,-389 456.212,-389 "/>
<text text-anchor="middle" x="363.212" y="-378.1" font-family="Arial" font-size="8.00">javax.jcr(2.0)</text>
</g>
<!-- org_liveSense_core&#45;&gt;javax_jcr -->
<g id="edge9" class="edge"><title>org_liveSense_core&#45;&gt;javax_jcr</title>
<path fill="none" stroke="#3182bd" d="M832.672,-609.326C719.512,-607.021 501.757,-597.19 438.212,-556 390.548,-525.104 372.848,-455.847 366.529,-417.266"/>
<polygon fill="#3182bd" stroke="#3182bd" points="369.972,-416.629 365.033,-407.256 363.049,-417.663 369.972,-416.629"/>
</g>
<!-- org_apache_sling_api -->
<g id="node11" class="node"><title>org_apache_sling_api</title>
<polygon fill="#9ecae1" stroke="black" points="987.712,-519 987.712,-555 1098.71,-555 1098.71,-519 987.712,-519"/>
<text text-anchor="middle" x="1043.21" y="-544.1" font-family="Arial" font-size="8.00">Apache Sling API</text>
<polyline fill="none" stroke="black" points="987.712,-537 1098.71,-537 "/>
<text text-anchor="middle" x="1043.21" y="-526.1" font-family="Arial" font-size="8.00">org.apache.sling.api(2.4.2)</text>
</g>
<!-- org_liveSense_core&#45;&gt;org_apache_sling_api -->
<g id="edge10" class="edge"><title>org_liveSense_core&#45;&gt;org_apache_sling_api</title>
<path fill="none" stroke="#3182bd" d="M935.627,-592.937C955.064,-583.012 979.759,-570.401 1000.59,-559.766"/>
<polygon fill="#3182bd" stroke="#3182bd" points="1002.23,-562.855 1009.55,-555.19 999.05,-556.621 1002.23,-562.855"/>
</g>
<!-- org_apache_sling_commons_osgi -->
<g id="node12" class="node"><title>org_apache_sling_commons_osgi</title>
<polygon fill="#9ecae1" stroke="black" points="1349.71,-149 1349.71,-185 1502.71,-185 1502.71,-149 1349.71,-149"/>
<text text-anchor="middle" x="1426.21" y="-174.1" font-family="Arial" font-size="8.00">Apache Sling Commons OSGi support</text>
<polyline fill="none" stroke="black" points="1349.71,-167 1502.71,-167 "/>
<text text-anchor="middle" x="1426.21" y="-156.1" font-family="Arial" font-size="8.00">org.apache.sling.commons.osgi(2.2.0)</text>
</g>
<!-- org_liveSense_core&#45;&gt;org_apache_sling_commons_osgi -->
<g id="edge11" class="edge"><title>org_liveSense_core&#45;&gt;org_apache_sling_commons_osgi</title>
<path fill="none" stroke="#3182bd" d="M971.937,-593.863C975.405,-593.201 978.844,-592.575 982.212,-592 1117.19,-568.939 1169.06,-623.485 1288.21,-556 1333.15,-530.547 1359.21,-515.649 1359.21,-464 1359.21,-464 1359.21,-464 1359.21,-388 1359.21,-315.336 1393.07,-234.8 1412.65,-194.309"/>
<polygon fill="#3182bd" stroke="#3182bd" points="1415.89,-195.653 1417.18,-185.137 1409.61,-192.557 1415.89,-195.653"/>
</g>
<!-- org_apache_commons_lang -->
<g id="node13" class="node"><title>org_apache_commons_lang</title>
<polygon fill="#9ecae1" stroke="black" points="447.712,-519 447.712,-555 574.712,-555 574.712,-519 447.712,-519"/>
<text text-anchor="middle" x="511.212" y="-544.1" font-family="Arial" font-size="8.00">Commons Lang</text>
<polyline fill="none" stroke="black" points="447.712,-537 574.712,-537 "/>
<text text-anchor="middle" x="511.212" y="-526.1" font-family="Arial" font-size="8.00">org.apache.commons.lang(2.6)</text>
</g>
<!-- org_liveSense_core&#45;&gt;org_apache_commons_lang -->
<g id="edge13" class="edge"><title>org_liveSense_core&#45;&gt;org_apache_commons_lang</title>
<path fill="none" stroke="#3182bd" d="M832.696,-599.151C769.13,-588.96 672.595,-572.8 589.212,-556 587.765,-555.708 586.303,-555.41 584.831,-555.106"/>
<polygon fill="#3182bd" stroke="#3182bd" points="585.508,-551.672 575,-553.026 584.059,-558.52 585.508,-551.672"/>
</g>
<!-- org_apache_felix_scr -->
<g id="node14" class="node"><title>org_apache_felix_scr</title>
<polygon fill="#9ecae1" stroke="black" points="1117.21,-519 1117.21,-555 1255.21,-555 1255.21,-519 1117.21,-519"/>
<text text-anchor="middle" x="1186.21" y="-544.1" font-family="Arial" font-size="8.00">Apache Felix Declarative Services</text>
<polyline fill="none" stroke="black" points="1117.21,-537 1255.21,-537 "/>
<text text-anchor="middle" x="1186.21" y="-526.1" font-family="Arial" font-size="8.00">org.apache.felix.scr(1.6.2)</text>
</g>
<!-- org_liveSense_core&#45;&gt;org_apache_felix_scr -->
<g id="edge15" class="edge"><title>org_liveSense_core&#45;&gt;org_apache_felix_scr</title>
<path fill="none" stroke="#3182bd" d="M969.516,-592.937C1011.45,-582.305 1065.54,-568.593 1109.19,-557.528"/>
<polygon fill="#3182bd" stroke="#3182bd" points="1110.07,-560.915 1118.9,-555.065 1108.35,-554.13 1110.07,-560.915"/>
</g>
<!-- org_ops4j_pax_logging_pax_logging_api -->
<g id="node15" class="node"><title>org_ops4j_pax_logging_pax_logging_api</title>
<polygon fill="#9ecae1" stroke="black" points="1043.71,-149 1043.71,-185 1216.71,-185 1216.71,-149 1043.71,-149"/>
<text text-anchor="middle" x="1130.21" y="-174.1" font-family="Arial" font-size="8.00">OPS4J Pax Logging &#45; API</text>
<polyline fill="none" stroke="black" points="1043.71,-167 1216.71,-167 "/>
<text text-anchor="middle" x="1130.21" y="-156.1" font-family="Arial" font-size="8.00">org.ops4j.pax.logging.pax&#45;logging&#45;api(1.7.0)</text>
</g>
<!-- org_liveSense_core&#45;&gt;org_ops4j_pax_logging_pax_logging_api -->
<g id="edge16" class="edge"><title>org_liveSense_core&#45;&gt;org_ops4j_pax_logging_pax_logging_api</title>
<path fill="none" stroke="#3182bd" d="M971.944,-593.904C975.41,-593.231 978.847,-592.592 982.212,-592 1044.43,-581.054 1217.86,-598.926 1264.21,-556 1294.85,-527.63 1283.21,-505.752 1283.21,-464 1283.21,-464 1283.21,-464 1283.21,-314 1283.21,-255.434 1223.81,-213.169 1179.03,-189.628"/>
<polygon fill="#3182bd" stroke="#3182bd" points="1180.51,-186.453 1170.01,-185.03 1177.33,-192.689 1180.51,-186.453"/>
</g>
<!-- org_apache_servicemix_bundles_guava -->
<g id="node16" class="node"><title>org_apache_servicemix_bundles_guava</title>
<polygon fill="#9ecae1" stroke="black" points="631.712,-519 631.712,-555 816.712,-555 816.712,-519 631.712,-519"/>
<text text-anchor="middle" x="724.212" y="-544.1" font-family="Arial" font-size="8.00">Apache ServiceMix :: Bundles :: guava</text>
<polyline fill="none" stroke="black" points="631.712,-537 816.712,-537 "/>
<text text-anchor="middle" x="724.212" y="-526.1" font-family="Arial" font-size="8.00">org.apache.servicemix.bundles.guava(11.0.0.1)</text>
</g>
<!-- org_liveSense_core&#45;&gt;org_apache_servicemix_bundles_guava -->
<g id="edge17" class="edge"><title>org_liveSense_core&#45;&gt;org_apache_servicemix_bundles_guava</title>
<path fill="none" stroke="#3182bd" d="M860.029,-592.937C834.849,-582.752 802.68,-569.74 775.971,-558.936"/>
<polygon fill="#3182bd" stroke="#3182bd" points="776.984,-555.57 766.401,-555.065 774.359,-562.06 776.984,-555.57"/>
</g>
<!-- net_entropysoft_transmorph -->
<g id="node17" class="node"><title>net_entropysoft_transmorph</title>
<polygon fill="#9ecae1" stroke="black" points="834.712,-519 834.712,-555 969.712,-555 969.712,-519 834.712,-519"/>
<text text-anchor="middle" x="902.212" y="-544.1" font-family="Arial" font-size="8.00">Transmorph</text>
<polyline fill="none" stroke="black" points="834.712,-537 969.712,-537 "/>
<text text-anchor="middle" x="902.212" y="-526.1" font-family="Arial" font-size="8.00">net.entropysoft.transmorph(3.1.1)</text>
</g>
<!-- org_liveSense_core&#45;&gt;net_entropysoft_transmorph -->
<g id="edge18" class="edge"><title>org_liveSense_core&#45;&gt;net_entropysoft_transmorph</title>
<path fill="none" stroke="#3182bd" d="M902.212,-592.937C902.212,-584.807 902.212,-574.876 902.212,-565.705"/>
<polygon fill="#3182bd" stroke="#3182bd" points="905.712,-565.441 902.212,-555.441 898.712,-565.441 905.712,-565.441"/>
</g>
<!-- org_apache_jackrabbit_jackrabbit_jcr_commons -->
<g id="node18" class="node"><title>org_apache_jackrabbit_jackrabbit_jcr_commons</title>
<polygon fill="#9ecae1" stroke="black" points="145.712,-519 145.712,-555 346.712,-555 346.712,-519 145.712,-519"/>
<text text-anchor="middle" x="246.212" y="-544.1" font-family="Arial" font-size="8.00">Jackrabbit JCR Commons</text>
<polyline fill="none" stroke="black" points="145.712,-537 346.712,-537 "/>
<text text-anchor="middle" x="246.212" y="-526.1" font-family="Arial" font-size="8.00">org.apache.jackrabbit.jackrabbit&#45;jcr&#45;commons(2.4.2)</text>
</g>
<!-- org_liveSense_core&#45;&gt;org_apache_jackrabbit_jackrabbit_jcr_commons -->
<g id="edge19" class="edge"><title>org_liveSense_core&#45;&gt;org_apache_jackrabbit_jackrabbit_jcr_commons</title>
<path fill="none" stroke="#3182bd" d="M832.469,-604.291C729.289,-595.561 529.972,-577.613 361.212,-556 359.74,-555.811 358.258,-555.619 356.767,-555.423"/>
<polygon fill="#3182bd" stroke="#3182bd" points="357.205,-551.95 346.827,-554.08 356.268,-558.887 357.205,-551.95"/>
</g>
<!-- org_apache_commons_beanutils&#45;&gt;org_ops4j_pax_logging_pax_logging_api -->
<g id="edge23" class="edge"><title>org_apache_commons_beanutils&#45;&gt;org_ops4j_pax_logging_pax_logging_api</title>
<path fill="none" stroke="#9ecae1" d="M1445.73,-518.549C1436.22,-508.448 1424.7,-495.161 1416.21,-482 1347.34,-375.195 1392.15,-306.478 1297.21,-222 1277.43,-204.398 1251.84,-192.524 1226.65,-184.517"/>
<polygon fill="#9ecae1" stroke="#9ecae1" points="1227.62,-181.153 1217.04,-181.634 1225.61,-187.858 1227.62,-181.153"/>
</g>
<!-- org_apache_commons_collections -->
<g id="node19" class="node"><title>org_apache_commons_collections</title>
<polygon fill="#deebf7" stroke="black" points="1425.21,-445 1425.21,-481 1581.21,-481 1581.21,-445 1425.21,-445"/>
<text text-anchor="middle" x="1503.21" y="-470.1" font-family="Arial" font-size="8.00">Commons Collections</text>
<polyline fill="none" stroke="black" points="1425.21,-463 1581.21,-463 "/>
<text text-anchor="middle" x="1503.21" y="-452.1" font-family="Arial" font-size="8.00">org.apache.commons.collections(3.2.1)</text>
</g>
<!-- org_apache_commons_beanutils&#45;&gt;org_apache_commons_collections -->
<g id="edge24" class="edge"><title>org_apache_commons_beanutils&#45;&gt;org_apache_commons_collections</title>
<path fill="none" stroke="#9ecae1" d="M1472.69,-518.937C1477.45,-510.365 1483.33,-499.791 1488.65,-490.217"/>
<polygon fill="#9ecae1" stroke="#9ecae1" points="1491.73,-491.882 1493.52,-481.441 1485.61,-488.482 1491.73,-491.882"/>
</g>
<!-- org_apache_sling_api&#45;&gt;org_apache_geronimo_specs_geronimo_servlet_3_0_spec -->
<g id="edge21" class="edge"><title>org_apache_sling_api&#45;&gt;org_apache_geronimo_specs_geronimo_servlet_3_0_spec</title>
<path fill="none" stroke="#9ecae1" d="M987.683,-519.986C984.49,-519.264 981.317,-518.595 978.212,-518 832.875,-490.163 794.064,-500.227 647.212,-482 646.09,-481.861 644.963,-481.72 643.83,-481.578"/>
<polygon fill="#9ecae1" stroke="#9ecae1" points="643.892,-478.058 633.53,-480.267 643.008,-485.002 643.892,-478.058"/>
</g>
<!-- org_apache_sling_api&#45;&gt;org_ops4j_pax_logging_pax_logging_api -->
<g id="edge20" class="edge"><title>org_apache_sling_api&#45;&gt;org_ops4j_pax_logging_pax_logging_api</title>
<path fill="none" stroke="#9ecae1" d="M1073.07,-518.998C1110.33,-495.304 1169.21,-448.592 1169.21,-390 1169.21,-390 1169.21,-390 1169.21,-314 1169.21,-271.052 1153.27,-223.331 1141.77,-194.503"/>
<polygon fill="#9ecae1" stroke="#9ecae1" points="1144.95,-193.053 1137.92,-185.133 1138.48,-195.713 1144.95,-193.053"/>
</g>
<!-- org_apache_felix_eventadmin -->
<g id="node22" class="node"><title>org_apache_felix_eventadmin</title>
<polygon fill="#bdbdbd" stroke="black" points="1060.21,-75 1060.21,-111 1200.21,-111 1200.21,-75 1060.21,-75"/>
<text text-anchor="middle" x="1130.21" y="-100.1" font-family="Arial" font-size="8.00">Apache Felix EventAdmin</text>
<polyline fill="none" stroke="black" points="1060.21,-93 1200.21,-93 "/>
<text text-anchor="middle" x="1130.21" y="-82.1" font-family="Arial" font-size="8.00">org.apache.felix.eventadmin(1.3.2)</text>
</g>
<!-- org_apache_sling_commons_osgi&#45;&gt;org_apache_felix_eventadmin -->
<g id="edge22" class="edge"><title>org_apache_sling_commons_osgi&#45;&gt;org_apache_felix_eventadmin</title>
<path fill="none" stroke="#9ecae1" d="M1356.06,-148.937C1312.18,-138.264 1255.54,-124.485 1209.96,-113.398"/>
<polygon fill="#9ecae1" stroke="#9ecae1" points="1210.66,-109.966 1200.11,-111.003 1209,-116.767 1210.66,-109.966"/>
</g>
<!-- org_apache_felix_scr&#45;&gt;org_ops4j_pax_logging_pax_logging_api -->
<g id="edge28" class="edge"><title>org_apache_felix_scr&#45;&gt;org_ops4j_pax_logging_pax_logging_api</title>
<path fill="none" stroke="#9ecae1" d="M1190.36,-518.587C1196.48,-491.333 1207.21,-436.863 1207.21,-390 1207.21,-390 1207.21,-390 1207.21,-314 1207.21,-271.743 1204.05,-258.763 1183.21,-222 1176.99,-211.018 1167.97,-200.672 1159.13,-192.032"/>
<polygon fill="#9ecae1" stroke="#9ecae1" points="1161.51,-189.466 1151.81,-185.199 1156.73,-194.582 1161.51,-189.466"/>
</g>
<!-- org_apache_karaf_shell_console -->
<g id="node20" class="node"><title>org_apache_karaf_shell_console</title>
<polygon fill="#deebf7" stroke="black" points="837.212,-445 837.212,-481 1003.21,-481 1003.21,-445 837.212,-445"/>
<text text-anchor="middle" x="920.212" y="-470.1" font-family="Arial" font-size="8.00">Apache Karaf :: Shell :: Console</text>
<polyline fill="none" stroke="black" points="837.212,-463 1003.21,-463 "/>
<text text-anchor="middle" x="920.212" y="-452.1" font-family="Arial" font-size="8.00">org.apache.karaf.shell.console(3.0.0.RC1)</text>
</g>
<!-- org_apache_felix_scr&#45;&gt;org_apache_karaf_shell_console -->
<g id="edge25" class="edge"><title>org_apache_felix_scr&#45;&gt;org_apache_karaf_shell_console</title>
<path fill="none" stroke="#9ecae1" d="M1123.17,-518.937C1084.14,-508.372 1033.87,-494.766 993.131,-483.737"/>
<polygon fill="#9ecae1" stroke="#9ecae1" points="993.825,-480.3 983.258,-481.065 991.996,-487.056 993.825,-480.3"/>
</g>
<!-- org_apache_felix_configadmin -->
<g id="node29" class="node"><title>org_apache_felix_configadmin</title>
<polygon fill="#bdbdbd" stroke="black" points="1145.21,-1 1145.21,-37 1311.21,-37 1311.21,-1 1145.21,-1"/>
<text text-anchor="middle" x="1228.21" y="-26.1" font-family="Arial" font-size="8.00">Apache Felix Configuration Admin Service</text>
<polyline fill="none" stroke="black" points="1145.21,-19 1311.21,-19 "/>
<text text-anchor="middle" x="1228.21" y="-8.1" font-family="Arial" font-size="8.00">org.apache.felix.configadmin(1.6.0)</text>
</g>
<!-- org_apache_felix_scr&#45;&gt;org_apache_felix_configadmin -->
<g id="edge26" class="edge"><title>org_apache_felix_scr&#45;&gt;org_apache_felix_configadmin</title>
<path fill="none" stroke="#9ecae1" d="M1219.24,-518.946C1259.2,-495.666 1321.21,-449.896 1321.21,-390 1321.21,-390 1321.21,-390 1321.21,-166 1321.21,-116.828 1283.22,-70.8719 1255.8,-44.1066"/>
<polygon fill="#9ecae1" stroke="#9ecae1" points="1258.06,-41.4192 1248.39,-37.0796 1253.24,-46.4994 1258.06,-41.4192"/>
</g>
<!-- org_apache_felix_metatype -->
<g id="node30" class="node"><title>org_apache_felix_metatype</title>
<polygon fill="#bdbdbd" stroke="black" points="966.712,-1 966.712,-37 1097.71,-37 1097.71,-1 966.712,-1"/>
<text text-anchor="middle" x="1032.21" y="-26.1" font-family="Arial" font-size="8.00">Apache Felix Metatype Service</text>
<polyline fill="none" stroke="black" points="966.712,-19 1097.71,-19 "/>
<text text-anchor="middle" x="1032.21" y="-8.1" font-family="Arial" font-size="8.00">org.apache.felix.metatype(1.0.6)</text>
</g>
<!-- org_apache_felix_scr&#45;&gt;org_apache_felix_metatype -->
<g id="edge27" class="edge"><title>org_apache_felix_scr&#45;&gt;org_apache_felix_metatype</title>
<path fill="none" stroke="#9ecae1" d="M1116.93,-519.819C1113.65,-519.177 1110.4,-518.567 1107.21,-518 984.119,-496.087 951.306,-503.904 828.212,-482 809.981,-478.756 519.422,-416.953 503.212,-408 482.305,-396.452 485.358,-382.83 465.212,-370 425.722,-344.85 403.522,-362.283 366.212,-334 326.11,-303.6 300.212,-292.322 300.212,-242 300.212,-242 300.212,-242 300.212,-166 300.212,-33.1877 769.51,-19.4574 956.574,-19.2599"/>
<polygon fill="#9ecae1" stroke="#9ecae1" points="956.607,-22.7598 966.608,-19.2621 956.609,-15.7598 956.607,-22.7598"/>
</g>
<!-- org_ops4j_pax_logging_pax_logging_api&#45;&gt;org_apache_felix_eventadmin -->
<g id="edge31" class="edge"><title>org_ops4j_pax_logging_pax_logging_api&#45;&gt;org_apache_felix_eventadmin</title>
<path fill="none" stroke="#deebf7" d="M1124.37,-148.937C1123.51,-140.807 1123.26,-130.876 1123.62,-121.705"/>
<polygon fill="#deebf7" stroke="#deebf7" points="1127.14,-121.658 1124.33,-111.441 1120.15,-121.176 1127.14,-121.658"/>
</g>
<!-- org_apache_jackrabbit_jackrabbit_jcr_commons&#45;&gt;javax_jcr -->
<g id="edge29" class="edge"><title>org_apache_jackrabbit_jackrabbit_jcr_commons&#45;&gt;javax_jcr</title>
<path fill="none" stroke="#9ecae1" d="M275.109,-518.941C289.417,-509.429 306.161,-496.568 318.212,-482 334.329,-462.516 346.426,-436.289 353.996,-416.823"/>
<polygon fill="#9ecae1" stroke="#9ecae1" points="357.321,-417.924 357.54,-407.331 350.763,-415.475 357.321,-417.924"/>
</g>
<!-- org_apache_jackrabbit_jackrabbit_api -->
<g id="node21" class="node"><title>org_apache_jackrabbit_jackrabbit_api</title>
<polygon fill="#deebf7" stroke="black" points="143.212,-445 143.212,-481 309.212,-481 309.212,-445 143.212,-445"/>
<text text-anchor="middle" x="226.212" y="-470.1" font-family="Arial" font-size="8.00">Apache Jackrabbit API</text>
<polyline fill="none" stroke="black" points="143.212,-463 309.212,-463 "/>
<text text-anchor="middle" x="226.212" y="-452.1" font-family="Arial" font-size="8.00">org.apache.jackrabbit.jackrabbit&#45;api(2.4.2)</text>
</g>
<!-- org_apache_jackrabbit_jackrabbit_jcr_commons&#45;&gt;org_apache_jackrabbit_jackrabbit_api -->
<g id="edge30" class="edge"><title>org_apache_jackrabbit_jackrabbit_jcr_commons&#45;&gt;org_apache_jackrabbit_jackrabbit_api</title>
<path fill="none" stroke="#9ecae1" d="M241.472,-518.937C239.165,-510.63 236.335,-500.444 233.742,-491.108"/>
<polygon fill="#9ecae1" stroke="#9ecae1" points="237.106,-490.139 231.057,-481.441 230.361,-492.013 237.106,-490.139"/>
</g>
<!-- org_apache_karaf_shell_console&#45;&gt;org_ops4j_pax_logging_pax_logging_api -->
<g id="edge37" class="edge"><title>org_apache_karaf_shell_console&#45;&gt;org_ops4j_pax_logging_pax_logging_api</title>
<path fill="none" stroke="#deebf7" d="M1003.56,-453.399C1034.58,-446.043 1067.48,-432.57 1089.21,-408 1142.59,-347.66 1139.21,-244.145 1134,-195.183"/>
<polygon fill="#deebf7" stroke="#deebf7" points="1137.46,-194.576 1132.81,-185.053 1130.51,-195.393 1137.46,-194.576"/>
</g>
<!-- org_apache_karaf_shell_console&#45;&gt;org_apache_felix_eventadmin -->
<g id="edge34" class="edge"><title>org_apache_karaf_shell_console&#45;&gt;org_apache_felix_eventadmin</title>
<path fill="none" stroke="#deebf7" d="M1003.49,-459.419C1099.78,-451.469 1245.21,-421.928 1245.21,-316 1245.21,-316 1245.21,-316 1245.21,-240 1245.21,-198.156 1250,-181.712 1225.21,-148 1215.35,-134.583 1201.08,-124.018 1186.58,-115.927"/>
<polygon fill="#deebf7" stroke="#deebf7" points="1188.05,-112.744 1177.57,-111.205 1184.8,-118.945 1188.05,-112.744"/>
</g>
<!-- org_apache_aries_blueprint_api -->
<g id="node23" class="node"><title>org_apache_aries_blueprint_api</title>
<polygon fill="#bdbdbd" stroke="black" points="531.712,-297 531.712,-333 676.712,-333 676.712,-297 531.712,-297"/>
<text text-anchor="middle" x="604.212" y="-322.1" font-family="Arial" font-size="8.00">Apache Aries Blueprint API</text>
<polyline fill="none" stroke="black" points="531.712,-315 676.712,-315 "/>
<text text-anchor="middle" x="604.212" y="-304.1" font-family="Arial" font-size="8.00">org.apache.aries.blueprint.api(1.0.0)</text>
</g>
<!-- org_apache_karaf_shell_console&#45;&gt;org_apache_aries_blueprint_api -->
<g id="edge32" class="edge"><title>org_apache_karaf_shell_console&#45;&gt;org_apache_aries_blueprint_api</title>
<path fill="none" stroke="#deebf7" d="M837.021,-457.402C787.466,-451.426 725.106,-437.984 677.212,-408 663.436,-399.376 638.508,-365.815 621.66,-341.72"/>
<polygon fill="#deebf7" stroke="#deebf7" points="624.424,-339.563 615.854,-333.334 618.669,-343.548 624.424,-339.563"/>
</g>
<!-- jline -->
<g id="node24" class="node"><title>jline</title>
<polygon fill="#bdbdbd" stroke="black" points="686.212,-371 686.212,-407 740.212,-407 740.212,-371 686.212,-371"/>
<text text-anchor="middle" x="713.212" y="-396.1" font-family="Arial" font-size="8.00">JLine</text>
<polyline fill="none" stroke="black" points="686.212,-389 740.212,-389 "/>
<text text-anchor="middle" x="713.212" y="-378.1" font-family="Arial" font-size="8.00">jline(2.9.0)</text>
</g>
<!-- org_apache_karaf_shell_console&#45;&gt;jline -->
<g id="edge33" class="edge"><title>org_apache_karaf_shell_console&#45;&gt;jline</title>
<path fill="none" stroke="#deebf7" d="M858.044,-444.939C827.606,-435.991 790.399,-424.173 750.017,-408.058"/>
<polygon fill="#deebf7" stroke="#deebf7" points="751.107,-404.723 740.524,-404.213 748.479,-411.211 751.107,-404.723"/>
</g>
<!-- org_apache_aries_blueprint_core -->
<g id="node25" class="node"><title>org_apache_aries_blueprint_core</title>
<polygon fill="#bdbdbd" stroke="black" points="930.212,-371 930.212,-407 1080.21,-407 1080.21,-371 930.212,-371"/>
<text text-anchor="middle" x="1005.21" y="-396.1" font-family="Arial" font-size="8.00">Apache Aries Blueprint Core</text>
<polyline fill="none" stroke="black" points="930.212,-389 1080.21,-389 "/>
<text text-anchor="middle" x="1005.21" y="-378.1" font-family="Arial" font-size="8.00">org.apache.aries.blueprint.core(1.1.0)</text>
</g>
<!-- org_apache_karaf_shell_console&#45;&gt;org_apache_aries_blueprint_core -->
<g id="edge35" class="edge"><title>org_apache_karaf_shell_console&#45;&gt;org_apache_aries_blueprint_core</title>
<path fill="none" stroke="#deebf7" d="M940.356,-444.937C951.285,-435.679 964.972,-424.086 976.952,-413.938"/>
<polygon fill="#deebf7" stroke="#deebf7" points="979.55,-416.324 984.918,-407.19 975.026,-410.983 979.55,-416.324"/>
</g>
<!-- org_apache_sshd_core -->
<g id="node26" class="node"><title>org_apache_sshd_core</title>
<polygon fill="#bdbdbd" stroke="black" points="512.712,-371 512.712,-407 629.712,-407 629.712,-371 512.712,-371"/>
<text text-anchor="middle" x="571.212" y="-396.1" font-family="Arial" font-size="8.00">Apache Mina SSHD :: Core</text>
<polyline fill="none" stroke="black" points="512.712,-389 629.712,-389 "/>
<text text-anchor="middle" x="571.212" y="-378.1" font-family="Arial" font-size="8.00">org.apache.sshd.core(0.8.0)</text>
</g>
<!-- org_apache_karaf_shell_console&#45;&gt;org_apache_sshd_core -->
<g id="edge36" class="edge"><title>org_apache_karaf_shell_console&#45;&gt;org_apache_sshd_core</title>
<path fill="none" stroke="#deebf7" d="M836.961,-446.802C782.078,-436.514 708.693,-422.249 644.212,-408 642.738,-407.674 641.249,-407.341 639.748,-407.002"/>
<polygon fill="#deebf7" stroke="#deebf7" points="640.255,-403.528 629.724,-404.693 638.683,-410.349 640.255,-403.528"/>
</g>
<!-- org_apache_karaf_jaas_boot -->
<g id="node27" class="node"><title>org_apache_karaf_jaas_boot</title>
<polygon fill="#bdbdbd" stroke="black" points="758.712,-371 758.712,-407 911.712,-407 911.712,-371 758.712,-371"/>
<text text-anchor="middle" x="835.212" y="-396.1" font-family="Arial" font-size="8.00">Apache Karaf :: JAAS :: Boot</text>
<polyline fill="none" stroke="black" points="758.712,-389 911.712,-389 "/>
<text text-anchor="middle" x="835.212" y="-378.1" font-family="Arial" font-size="8.00">org.apache.karaf.jaas.boot(3.0.0.RC1)</text>
</g>
<!-- org_apache_karaf_shell_console&#45;&gt;org_apache_karaf_jaas_boot -->
<g id="edge38" class="edge"><title>org_apache_karaf_shell_console&#45;&gt;org_apache_karaf_jaas_boot</title>
<path fill="none" stroke="#deebf7" d="M900.068,-444.937C889.139,-435.679 875.452,-424.086 863.472,-413.938"/>
<polygon fill="#deebf7" stroke="#deebf7" points="865.399,-410.983 855.506,-407.19 860.874,-416.324 865.399,-410.983"/>
</g>
<!-- org_apache_jackrabbit_jackrabbit_api&#45;&gt;javax_jcr -->
<g id="edge39" class="edge"><title>org_apache_jackrabbit_jackrabbit_api&#45;&gt;javax_jcr</title>
<path fill="none" stroke="#deebf7" d="M258.679,-444.937C277.48,-435.056 301.344,-422.514 321.523,-411.91"/>
<polygon fill="#deebf7" stroke="#deebf7" points="323.28,-414.94 330.503,-407.19 320.023,-408.744 323.28,-414.94"/>
</g>
<!-- org_apache_geronimo_specs_geronimo_jta_1_1_spec -->
<g id="node28" class="node"><title>org_apache_geronimo_specs_geronimo_jta_1_1_spec</title>
<polygon fill="#bdbdbd" stroke="black" points="30.2121,-371 30.2121,-407 252.212,-407 252.212,-371 30.2121,-371"/>
<text text-anchor="middle" x="141.212" y="-396.1" font-family="Arial" font-size="8.00">geronimo&#45;jta_1.1_spec</text>
<polyline fill="none" stroke="black" points="30.2121,-389 252.212,-389 "/>
<text text-anchor="middle" x="141.212" y="-378.1" font-family="Arial" font-size="8.00">org.apache.geronimo.specs.geronimo&#45;jta_1.1_spec(1.1.1)</text>
</g>
<!-- org_apache_jackrabbit_jackrabbit_api&#45;&gt;org_apache_geronimo_specs_geronimo_jta_1_1_spec -->
<g id="edge40" class="edge"><title>org_apache_jackrabbit_jackrabbit_api&#45;&gt;org_apache_geronimo_specs_geronimo_jta_1_1_spec</title>
<path fill="none" stroke="#deebf7" d="M206.068,-444.937C195.139,-435.679 181.452,-424.086 169.472,-413.938"/>
<polygon fill="#deebf7" stroke="#deebf7" points="171.399,-410.983 161.506,-407.19 166.874,-416.324 171.399,-410.983"/>
</g>
<!-- org_apache_felix_eventadmin&#45;&gt;org_ops4j_pax_logging_pax_logging_api -->
<g id="edge41" class="edge"><title>org_apache_felix_eventadmin&#45;&gt;org_ops4j_pax_logging_pax_logging_api</title>
<path fill="none" stroke="#bdbdbd" d="M1136.09,-111.441C1136.94,-119.625 1137.17,-129.572 1136.78,-138.719"/>
<polygon fill="#bdbdbd" stroke="#bdbdbd" points="1133.27,-138.713 1136.05,-148.937 1140.26,-139.212 1133.27,-138.713"/>
</g>
<!-- org_apache_felix_eventadmin&#45;&gt;org_apache_felix_configadmin -->
<g id="edge42" class="edge"><title>org_apache_felix_eventadmin&#45;&gt;org_apache_felix_configadmin</title>
<path fill="none" stroke="#bdbdbd" d="M1153.44,-74.937C1166.28,-65.5012 1182.43,-53.6389 1196.42,-43.3541"/>
<polygon fill="#bdbdbd" stroke="#bdbdbd" points="1198.83,-45.9314 1204.81,-37.19 1194.68,-40.2902 1198.83,-45.9314"/>
</g>
<!-- org_apache_felix_eventadmin&#45;&gt;org_apache_felix_metatype -->
<g id="edge43" class="edge"><title>org_apache_felix_eventadmin&#45;&gt;org_apache_felix_metatype</title>
<path fill="none" stroke="#bdbdbd" d="M1106.99,-74.937C1094.14,-65.5012 1078,-53.6389 1064,-43.3541"/>
<polygon fill="#bdbdbd" stroke="#bdbdbd" points="1065.74,-40.2902 1055.61,-37.19 1061.6,-45.9314 1065.74,-40.2902"/>
</g>
<!-- org_apache_aries_blueprint_core&#45;&gt;org_ops4j_pax_logging_pax_logging_api -->
<g id="edge47" class="edge"><title>org_apache_aries_blueprint_core&#45;&gt;org_ops4j_pax_logging_pax_logging_api</title>
<path fill="none" stroke="#bdbdbd" d="M1034.36,-370.851C1048.11,-361.481 1063.75,-348.774 1074.21,-334 1090.34,-311.221 1112.12,-235.789 1123.17,-194.904"/>
<polygon fill="#bdbdbd" stroke="#bdbdbd" points="1126.59,-195.635 1125.79,-185.07 1119.83,-193.827 1126.59,-195.635"/>
</g>
<!-- org_apache_aries_blueprint_core&#45;&gt;org_apache_felix_eventadmin -->
<g id="edge46" class="edge"><title>org_apache_aries_blueprint_core&#45;&gt;org_apache_felix_eventadmin</title>
<path fill="none" stroke="#bdbdbd" d="M930.147,-371.989C926.791,-371.309 923.468,-370.644 920.212,-370 828.867,-351.943 694.577,-384.271 724.212,-296 768.451,-164.229 944.78,-118.135 1049.96,-102.216"/>
<polygon fill="#bdbdbd" stroke="#bdbdbd" points="1050.52,-105.672 1059.91,-100.768 1049.51,-98.745 1050.52,-105.672"/>
</g>
<!-- org_apache_aries_blueprint_core&#45;&gt;org_apache_aries_blueprint_api -->
<g id="edge45" class="edge"><title>org_apache_aries_blueprint_core&#45;&gt;org_apache_aries_blueprint_api</title>
<path fill="none" stroke="#bdbdbd" d="M930.168,-371.884C926.806,-371.233 923.476,-370.602 920.212,-370 818.892,-351.321 792.576,-352.442 691.212,-334 689.742,-333.733 688.259,-333.46 686.765,-333.182"/>
<polygon fill="#bdbdbd" stroke="#bdbdbd" points="687.269,-329.715 676.792,-331.289 685.964,-336.592 687.269,-329.715"/>
</g>
<!-- org_apache_aries_proxy_api -->
<g id="node31" class="node"><title>org_apache_aries_proxy_api</title>
<polygon fill="#bdbdbd" stroke="black" points="931.212,-297 931.212,-333 1065.21,-333 1065.21,-297 931.212,-297"/>
<text text-anchor="middle" x="998.212" y="-322.1" font-family="Arial" font-size="8.00">Apache Aries Proxy API</text>
<polyline fill="none" stroke="black" points="931.212,-315 1065.21,-315 "/>
<text text-anchor="middle" x="998.212" y="-304.1" font-family="Arial" font-size="8.00">org.apache.aries.proxy.api(1.0.0)</text>
</g>
<!-- org_apache_aries_blueprint_core&#45;&gt;org_apache_aries_proxy_api -->
<g id="edge44" class="edge"><title>org_apache_aries_blueprint_core&#45;&gt;org_apache_aries_proxy_api</title>
<path fill="none" stroke="#bdbdbd" d="M1003.55,-370.937C1002.75,-362.719 1001.78,-352.66 1000.88,-343.406"/>
<polygon fill="#bdbdbd" stroke="#bdbdbd" points="1004.36,-343.055 999.908,-333.441 997.392,-343.732 1004.36,-343.055"/>
</g>
<!-- org_apache_aries_util -->
<g id="node32" class="node"><title>org_apache_aries_util</title>
<polygon fill="#bdbdbd" stroke="black" points="942.212,-223 942.212,-259 1054.21,-259 1054.21,-223 942.212,-223"/>
<text text-anchor="middle" x="998.212" y="-248.1" font-family="Arial" font-size="8.00">Apache Aries Util</text>
<polyline fill="none" stroke="black" points="942.212,-241 1054.21,-241 "/>
<text text-anchor="middle" x="998.212" y="-230.1" font-family="Arial" font-size="8.00">org.apache.aries.util(1.1.0)</text>
</g>
<!-- org_apache_aries_blueprint_core&#45;&gt;org_apache_aries_util -->
<g id="edge48" class="edge"><title>org_apache_aries_blueprint_core&#45;&gt;org_apache_aries_util</title>
<path fill="none" stroke="#bdbdbd" d="M962.504,-370.847C946.921,-362.255 930.982,-350.169 922.212,-334 914.16,-319.154 914.465,-311.007 922.212,-296 928.784,-283.269 939.897,-272.886 951.625,-264.749"/>
<polygon fill="#bdbdbd" stroke="#bdbdbd" points="953.703,-267.575 960.218,-259.22 949.915,-261.688 953.703,-267.575"/>
</g>
<!-- org_apache_aries_quiesce_api -->
<g id="node33" class="node"><title>org_apache_aries_quiesce_api</title>
<polygon fill="#bdbdbd" stroke="black" points="733.212,-297 733.212,-333 875.212,-333 875.212,-297 733.212,-297"/>
<text text-anchor="middle" x="804.212" y="-322.1" font-family="Arial" font-size="8.00">Apache Aries Quiesce API</text>
<polyline fill="none" stroke="black" points="733.212,-315 875.212,-315 "/>
<text text-anchor="middle" x="804.212" y="-304.1" font-family="Arial" font-size="8.00">org.apache.aries.quiesce.api(1.0.0)</text>
</g>
<!-- org_apache_aries_blueprint_core&#45;&gt;org_apache_aries_quiesce_api -->
<g id="edge49" class="edge"><title>org_apache_aries_blueprint_core&#45;&gt;org_apache_aries_quiesce_api</title>
<path fill="none" stroke="#bdbdbd" d="M957.578,-370.937C928.771,-360.618 891.862,-347.397 861.472,-336.511"/>
<polygon fill="#bdbdbd" stroke="#bdbdbd" points="862.447,-333.142 851.852,-333.065 860.086,-339.732 862.447,-333.142"/>
</g>
<!-- org_apache_sshd_core&#45;&gt;org_ops4j_pax_logging_pax_logging_api -->
<g id="edge50" class="edge"><title>org_apache_sshd_core&#45;&gt;org_ops4j_pax_logging_pax_logging_api</title>
<path fill="none" stroke="#bdbdbd" d="M544.019,-370.915C531.867,-361.64 518.815,-348.995 512.212,-334 505.406,-318.543 501.982,-309.438 512.212,-296 574.274,-214.479 875.48,-183.754 1033.3,-173.116"/>
<polygon fill="#bdbdbd" stroke="#bdbdbd" points="1033.73,-176.594 1043.48,-172.444 1033.27,-169.61 1033.73,-176.594"/>
</g>
<!-- org_apache_mina_core -->
<g id="node34" class="node"><title>org_apache_mina_core</title>
<polygon fill="#bdbdbd" stroke="black" points="789.712,-223 789.712,-259 906.712,-259 906.712,-223 789.712,-223"/>
<text text-anchor="middle" x="848.212" y="-248.1" font-family="Arial" font-size="8.00">Apache MINA Core</text>
<polyline fill="none" stroke="black" points="789.712,-241 906.712,-241 "/>
<text text-anchor="middle" x="848.212" y="-230.1" font-family="Arial" font-size="8.00">org.apache.mina.core(2.0.7)</text>
</g>
<!-- org_apache_sshd_core&#45;&gt;org_apache_mina_core -->
<g id="edge51" class="edge"><title>org_apache_sshd_core&#45;&gt;org_apache_mina_core</title>
<path fill="none" stroke="#bdbdbd" d="M550.425,-370.687C529.377,-351.095 502.527,-318.93 522.212,-296 556.625,-255.914 705.175,-269.128 757.212,-260 764.491,-258.723 772.085,-257.326 779.647,-255.892"/>
<polygon fill="#bdbdbd" stroke="#bdbdbd" points="780.379,-259.315 789.54,-253.993 779.059,-252.441 780.379,-259.315"/>
</g>
<!-- bcprov -->
<g id="node35" class="node"><title>bcprov</title>
<polygon fill="#bdbdbd" stroke="black" points="375.712,-297 375.712,-333 436.712,-333 436.712,-297 375.712,-297"/>
<text text-anchor="middle" x="406.212" y="-322.1" font-family="Arial" font-size="8.00">bcprov</text>
<polyline fill="none" stroke="black" points="375.712,-315 436.712,-315 "/>
<text text-anchor="middle" x="406.212" y="-304.1" font-family="Arial" font-size="8.00">bcprov(1.46)</text>
</g>
<!-- org_apache_sshd_core&#45;&gt;bcprov -->
<g id="edge52" class="edge"><title>org_apache_sshd_core&#45;&gt;bcprov</title>
<path fill="none" stroke="#bdbdbd" d="M532.109,-370.937C506.138,-359.604 472.144,-344.77 446.027,-333.374"/>
<polygon fill="#bdbdbd" stroke="#bdbdbd" points="447.357,-330.135 436.791,-329.344 444.557,-336.551 447.357,-330.135"/>
</g>
<!-- org_apache_felix_configadmin&#45;&gt;org_ops4j_pax_logging_pax_logging_api -->
<g id="edge53" class="edge"><title>org_apache_felix_configadmin&#45;&gt;org_ops4j_pax_logging_pax_logging_api</title>
<path fill="none" stroke="#bdbdbd" d="M1228.4,-37.0547C1227.83,-56.6994 1224.4,-89.1934 1209.21,-112 1200.76,-124.696 1188.21,-135.231 1175.58,-143.522"/>
<polygon fill="#bdbdbd" stroke="#bdbdbd" points="1173.55,-140.666 1166.88,-148.903 1177.23,-146.62 1173.55,-140.666"/>
</g>
<!-- org_apache_felix_metatype&#45;&gt;org_ops4j_pax_logging_pax_logging_api -->
<g id="edge54" class="edge"><title>org_apache_felix_metatype&#45;&gt;org_ops4j_pax_logging_pax_logging_api</title>
<path fill="none" stroke="#bdbdbd" d="M1032.02,-37.0547C1032.59,-56.6994 1036.03,-89.1934 1051.21,-112 1059.67,-124.696 1072.22,-135.231 1084.84,-143.522"/>
<polygon fill="#bdbdbd" stroke="#bdbdbd" points="1083.19,-146.62 1093.54,-148.903 1086.88,-140.666 1083.19,-146.62"/>
</g>
<!-- org_apache_aries_proxy_api&#45;&gt;org_apache_aries_util -->
<g id="edge55" class="edge"><title>org_apache_aries_proxy_api&#45;&gt;org_apache_aries_util</title>
<path fill="none" stroke="#bdbdbd" d="M998.212,-296.937C998.212,-288.807 998.212,-278.876 998.212,-269.705"/>
<polygon fill="#bdbdbd" stroke="#bdbdbd" points="1001.71,-269.441 998.212,-259.441 994.712,-269.441 1001.71,-269.441"/>
</g>
<!-- org_apache_aries_util&#45;&gt;org_ops4j_pax_logging_pax_logging_api -->
<g id="edge58" class="edge"><title>org_apache_aries_util&#45;&gt;org_ops4j_pax_logging_pax_logging_api</title>
<path fill="none" stroke="#bdbdbd" d="M1029.49,-222.937C1047.53,-213.101 1070.4,-200.627 1089.78,-190.053"/>
<polygon fill="#bdbdbd" stroke="#bdbdbd" points="1091.59,-193.051 1098.7,-185.19 1088.24,-186.906 1091.59,-193.051"/>
</g>
<!-- org_apache_mina_core&#45;&gt;org_ops4j_pax_logging_pax_logging_api -->
<g id="edge56" class="edge"><title>org_apache_mina_core&#45;&gt;org_ops4j_pax_logging_pax_logging_api</title>
<path fill="none" stroke="#bdbdbd" d="M906.985,-224.994C949.544,-214.128 1007.47,-199.34 1053.64,-187.55"/>
<polygon fill="#bdbdbd" stroke="#bdbdbd" points="1054.78,-190.871 1063.61,-185.006 1053.05,-184.089 1054.78,-190.871"/>
</g>
<!-- bcprov&#45;&gt;org_apache_servicemix_bundles_junit -->
<g id="edge57" class="edge"><title>bcprov&#45;&gt;org_apache_servicemix_bundles_junit</title>
<path fill="none" stroke="#bdbdbd" d="M408.345,-296.937C409.372,-288.719 410.63,-278.66 411.786,-269.406"/>
<polygon fill="#bdbdbd" stroke="#bdbdbd" points="415.265,-269.798 413.032,-259.441 408.319,-268.929 415.265,-269.798"/>
</g>
</g>
</svg>
